<svg width="335" height="89" viewBox="0 0 335 89" fill="none" xmlns="http://www.w3.org/2000/svg">
<path d="M50.2676 33.3225C50.3544 20.1391 31.7545 9.3272 44.9681 9.41544C58.1816 9.50367 68.823 20.2625 68.7362 33.4459C68.6495 46.6293 57.8675 57.245 44.6539 57.1567C31.4404 57.0685 50.1809 46.5059 50.2676 33.3225Z" fill="#FD6F00"/>
<path d="M46.3282 59.844C59.4146 59.9314 70.147 41.1937 70.0594 54.5052C69.9718 67.8167 59.2922 78.5369 46.2058 78.4495C33.1194 78.3621 22.5818 67.5002 22.6694 54.1887C22.757 40.8772 33.2418 59.7566 46.3282 59.844Z" fill="#FD6F00"/>
<path d="M24.8 31.9805C26.4308 31.9914 27.4889 32.166 28.132 32.4422C28.4459 32.5771 28.6353 32.7256 28.7494 32.8673C28.859 33.0035 28.9213 33.1608 28.9376 33.3578C28.9729 33.787 28.7918 34.398 28.3471 35.2348C27.9117 36.0539 27.2738 37.0005 26.5129 38.0751C25.005 40.2048 23.0391 42.8022 21.4559 45.6851C19.8702 48.5726 18.6344 51.8022 18.6118 55.2327C18.5892 58.6632 19.7824 61.909 21.33 64.8175C22.8751 67.7212 24.8067 70.3447 26.2864 72.4943C27.0331 73.579 27.6585 74.534 28.0831 75.3589C28.5169 76.2019 28.6899 76.8159 28.6488 77.2445C28.6299 77.4412 28.5655 77.5969 28.4542 77.7315C28.3383 77.8717 28.1469 78.0176 27.8313 78.1483C27.1845 78.4159 26.1243 78.5763 24.4935 78.5655C11.5979 78.4793 1.21501 67.9801 1.29965 55.1171C1.38433 42.2541 11.9045 31.8944 24.8 31.9805Z" stroke="#FD6F00" stroke-width="1.15584"/>
<path d="M23.7625 28.0105C10.6761 27.9231 -0.056276 46.6609 0.0313129 33.3494C0.118902 20.0379 10.7985 9.31763 23.8849 9.40502C36.9713 9.4924 47.5089 20.3543 47.4213 33.6658C47.3337 46.9773 36.8489 28.0979 23.7625 28.0105Z" fill="#FD6F00"/>
<mask id="path-5-outside-1_181_568" maskUnits="userSpaceOnUse" x="76.6429" y="8" width="258" height="62" fill="black">
<rect fill="white" x="76.6429" y="8" width="258" height="62"/>
<path d="M116.813 45.039C116.813 44.3166 116.307 43.9554 115.295 43.9554C114.284 43.9554 113.176 44.148 111.972 44.5333C110.768 44.9186 109.444 45.4242 107.999 46.0503C106.554 46.6764 105.049 47.3868 103.484 48.1814C101.919 48.9761 100.414 49.7827 98.9692 50.6015C95.8629 52.3593 93.7438 53.7078 92.612 54.6469C91.5044 55.562 90.5893 56.3686 89.8669 57.067C89.1686 57.7653 88.4703 58.4034 87.7719 58.9813C86.1345 60.3298 84.8944 61.0041 84.0516 61.0041C83.2088 61.0041 82.4502 60.8716 81.776 60.6067C81.1018 60.3178 80.4877 59.9205 79.9339 59.4148C78.6335 58.1867 77.9834 56.7298 77.9834 55.0442C77.9834 52.0583 80.6202 46.1948 85.8937 37.4537C88.1572 33.6972 90.3485 30.3983 92.4676 27.5568C94.5866 24.6913 96.6214 22.2592 98.5719 20.2605C100.522 18.2378 102.389 16.5281 104.17 15.1315C107.831 12.266 110.744 10.8332 112.912 10.8332C113.538 10.8332 114.055 11.062 114.465 11.5195C114.874 11.977 115.079 12.4706 115.079 13.0004C115.079 14.2044 114.693 15.4566 113.923 16.7569C113.176 18.0331 112.177 19.6465 110.925 21.597L103.231 33.2638C100.823 36.9721 99.5591 39.0551 99.4387 39.5126C99.3424 39.946 99.2943 40.2591 99.2943 40.4517C99.2943 40.6443 99.4267 40.7407 99.6916 40.7407C99.9565 40.7407 100.703 40.4637 101.931 39.9099C101.931 39.9099 103.472 39.2116 106.554 37.8149C113.514 34.7808 119.136 33.2638 123.423 33.2638C125.855 33.2638 127.889 34.3835 129.527 36.623C131.044 38.7179 131.802 40.9815 131.802 43.4136C131.802 45.8456 131.429 47.9406 130.683 49.6985C129.936 51.4563 128.828 52.8409 127.36 53.8523C125.915 54.8636 124.47 55.8028 123.025 56.6696L118.402 59.4148C109.661 64.303 103.316 66.7472 99.3665 66.7472C93.9003 66.7472 91.1672 65.3264 91.1672 62.485C91.1672 60.9439 91.9137 59.8001 93.4067 59.0536C107.156 51.6128 114.332 47.6998 114.934 47.3145C116.186 46.5199 116.813 45.7614 116.813 45.039ZM162.415 25.2451C161.717 25.823 160.958 26.3047 160.139 26.6899C159.321 27.0511 158.406 27.2317 157.394 27.2317C156.383 27.2317 155.408 27.0632 154.468 26.7261C153.529 26.3889 152.711 25.9194 152.012 25.3174C150.495 24.017 149.737 22.3555 149.737 20.3328C149.737 17.2265 152.337 14.9148 157.539 13.3977C159.297 12.868 160.741 12.6031 161.873 12.6031C163.005 12.6031 163.848 12.7355 164.402 13.0004C164.979 13.2412 165.449 13.5663 165.81 13.9756C166.533 14.7944 166.894 15.6372 166.894 16.5041C166.894 17.3469 166.785 18.1174 166.569 18.8157C166.376 19.5141 166.087 20.2365 165.702 20.983C165.317 21.7294 164.847 22.4759 164.293 23.2224C163.739 23.9689 163.113 24.6431 162.415 25.2451ZM153.313 65.0134C151.483 65.9525 149.701 66.699 147.967 67.2528C146.233 67.8308 144.523 68.1197 142.838 68.1197C141.176 68.1197 139.443 67.7224 137.637 66.9278C135.855 66.109 134.265 65.0254 132.869 63.6769C129.762 60.6669 128.209 57.3198 128.209 53.6356C128.209 50.2403 129.221 46.7968 131.243 43.3052C133.097 40.1507 135.457 37.5019 138.323 35.3588C141.188 33.2156 143.849 32.1441 146.305 32.1441C149.821 32.1441 151.699 33.1314 151.94 35.1059C152.012 35.7079 152.048 36.4062 152.048 37.2009C152.048 37.9955 151.856 38.9106 151.471 39.946C151.109 40.9574 150.628 41.9808 150.026 43.0162C149.448 44.0276 148.798 45.0269 148.075 46.0142C147.377 46.9774 146.703 47.8563 146.052 48.651C144.8 50.168 143.801 51.2637 143.055 51.9379C143.055 52.7566 143.669 53.5994 144.897 54.4663C146.052 55.285 147.028 55.6944 147.822 55.6944C148.641 55.6944 149.592 55.5018 150.676 55.1165C151.784 54.7312 152.915 54.2135 154.071 53.5633C155.251 52.9131 156.443 52.1667 157.647 51.3239C158.875 50.4811 160.079 49.6142 161.259 48.7232L167.869 43.558C170.494 41.6557 172.625 40.7045 174.262 40.7045C174.912 40.7045 175.406 40.9453 175.743 41.4269C176.104 41.8845 176.285 42.4263 176.285 43.0524C176.285 43.6784 175.972 44.5453 175.346 45.653C174.72 46.7366 173.853 47.9406 172.745 49.265C171.662 50.5894 170.385 51.974 168.917 53.4188C167.448 54.8636 165.858 56.2844 164.149 57.681C162.439 59.0777 160.657 60.4141 158.803 61.6903C156.973 62.9425 155.143 64.0502 153.313 65.0134ZM209.896 41.4992C211.437 41.4992 212.207 42.1373 212.207 43.4136C212.207 44.9788 211.268 46.845 209.39 49.0122C206.284 52.6242 202.623 56.1399 198.409 59.5593C191.547 65.0495 185.418 67.7946 180.024 67.7946C176.147 67.7946 172.969 66.109 170.488 62.7378C167.912 59.2221 166.624 54.5024 166.624 48.5787C166.624 40.8009 170.416 32.2043 178.001 22.789C182.817 16.793 187.357 12.7235 191.619 10.5804C192.943 9.90611 193.955 9.56899 194.653 9.56899C195.375 9.56899 196.025 9.68939 196.603 9.93019C197.205 10.1469 197.759 10.46 198.265 10.8693C199.445 11.8566 200.035 13.0486 200.035 14.4452C200.035 15.8419 199.649 17.5034 198.879 19.4298C198.108 21.3321 196.989 23.3669 195.52 25.5341C192.413 30.1334 188.211 34.54 182.914 38.7541C181.541 41.3788 180.855 44.5333 180.855 48.2175C180.855 49.8791 181.385 51.4443 182.444 52.9131C183.528 54.382 184.72 55.1165 186.02 55.1165C187.802 55.1165 191.209 53.2743 196.242 49.5901L202.672 44.6416C205.296 42.5467 207.704 41.4992 209.896 41.4992ZM241.664 44.75C241.664 46.0503 242.772 46.7005 244.987 46.7005C246.624 46.7005 248.768 45.9058 251.416 44.3166L254.306 42.7273C255.197 42.2216 255.968 41.9687 256.618 41.9687C257.292 41.9687 257.822 42.1734 258.207 42.5828C258.592 42.9922 258.785 43.558 258.785 44.2804C258.785 45.0028 258.544 45.8456 258.062 46.8088C257.581 47.748 256.919 48.7473 256.076 49.8068C255.233 50.8423 254.246 51.8777 253.114 52.9131C251.982 53.9245 250.766 54.8396 249.466 55.6583C246.576 57.4643 243.891 58.3673 241.411 58.3673C238.786 58.3673 236.691 57.9218 235.126 57.0308C234.645 56.7419 234.175 56.4409 233.718 56.1278C231.141 59.0656 227.409 61.7626 222.52 64.2187C217.319 66.8194 212.78 68.1197 208.903 68.1197C204.833 68.1197 201.619 66.5184 199.259 63.3157C197.357 60.7151 196.405 58.0783 196.405 55.4054C196.405 51.5526 198.464 47.8804 202.582 44.3888C205.616 41.8363 208.542 39.8979 211.359 38.5735C214.201 37.2491 216.765 36.2256 219.053 35.5032C223.893 33.9862 228.251 33.2277 232.128 33.2277C233.862 33.2277 235.403 33.5648 236.752 34.239C238.124 34.8892 239.136 35.5514 239.786 36.2256C241.327 37.7427 242.097 39.6811 242.097 42.041C242.097 42.7393 242.025 43.2811 241.881 43.6664C241.736 44.0517 241.664 44.4129 241.664 44.75ZM212.118 51.5767L212.082 51.6851V51.7212C212.082 52.7566 212.31 53.4309 212.768 53.7439C213.876 54.4182 215.043 54.5988 216.271 54.2857C217.5 53.9486 218.667 53.5392 219.775 53.0576C222.52 51.8777 225.001 50.3847 227.216 48.5787C226.831 47.8082 226.638 47.0135 226.638 46.1948C226.638 44.461 227.396 42.7273 228.914 40.9935C226.987 40.9935 224.386 41.8965 221.112 43.7025C217.5 45.7012 214.791 47.76 212.985 49.8791C212.407 50.6015 212.118 51.1673 212.118 51.5767ZM294.454 41.4992C295.995 41.4992 296.766 42.1373 296.766 43.4136C296.766 44.9788 295.827 46.845 293.949 49.0122C290.842 52.6242 287.182 56.1399 282.968 59.5593C276.105 65.0495 269.977 67.7946 264.583 67.7946C260.706 67.7946 257.527 66.109 255.047 62.7378C252.471 59.2221 251.182 54.5024 251.182 48.5787C251.182 40.8009 254.975 32.2043 262.56 22.789C267.376 16.793 271.915 12.7235 276.177 10.5804C277.502 9.90611 278.513 9.56899 279.212 9.56899C279.934 9.56899 280.584 9.68939 281.162 9.93019C281.764 10.1469 282.318 10.46 282.824 10.8693C284.003 11.8566 284.593 13.0486 284.593 14.4452C284.593 15.8419 284.208 17.5034 283.438 19.4298C282.667 21.3321 281.547 23.3669 280.078 25.5341C276.972 30.1334 272.77 34.54 267.472 38.7541C266.1 41.3788 265.414 44.5333 265.414 48.2175C265.414 49.8791 265.943 51.4443 267.003 52.9131C268.087 54.382 269.279 55.1165 270.579 55.1165C272.361 55.1165 275.768 53.2743 280.801 49.5901L287.23 44.6416C289.855 42.5467 292.263 41.4992 294.454 41.4992ZM319.324 25.2451C318.625 25.823 317.867 26.3047 317.048 26.6899C316.229 27.0511 315.314 27.2317 314.303 27.2317C313.292 27.2317 312.316 27.0632 311.377 26.7261C310.438 26.3889 309.619 25.9194 308.921 25.3174C307.404 24.017 306.646 22.3555 306.646 20.3328C306.646 17.2265 309.246 14.9148 314.447 13.3977C316.205 12.868 317.65 12.6031 318.782 12.6031C319.914 12.6031 320.756 12.7355 321.31 13.0004C321.888 13.2412 322.358 13.5663 322.719 13.9756C323.441 14.7944 323.803 15.6372 323.803 16.5041C323.803 17.3469 323.694 18.1174 323.477 18.8157C323.285 19.5141 322.996 20.2365 322.611 20.983C322.225 21.7294 321.756 22.4759 321.202 23.2224C320.648 23.9689 320.022 24.6431 319.324 25.2451ZM310.221 65.0134C308.391 65.9525 306.609 66.699 304.876 67.2528C303.142 67.8308 301.432 68.1197 299.747 68.1197C298.085 68.1197 296.351 67.7224 294.545 66.9278C292.763 66.109 291.174 65.0254 289.777 63.6769C286.671 60.6669 285.118 57.3198 285.118 53.6356C285.118 50.2403 286.129 46.7968 288.152 43.3052C290.006 40.1507 292.366 37.5019 295.232 35.3588C298.097 33.2156 300.758 32.1441 303.214 32.1441C306.73 32.1441 308.608 33.1314 308.849 35.1059C308.921 35.7079 308.957 36.4062 308.957 37.2009C308.957 37.9955 308.765 38.9106 308.379 39.946C308.018 40.9574 307.536 41.9808 306.934 43.0162C306.357 44.0276 305.706 45.0269 304.984 46.0142C304.286 46.9774 303.611 47.8563 302.961 48.651C301.709 50.168 300.71 51.2637 299.963 51.9379C299.963 52.7566 300.577 53.5994 301.805 54.4663C302.961 55.285 303.936 55.6944 304.731 55.6944C305.55 55.6944 306.501 55.5018 307.585 55.1165C308.692 54.7312 309.824 54.2135 310.98 53.5633C312.16 52.9131 313.352 52.1667 314.556 51.3239C315.784 50.4811 316.988 49.6142 318.168 48.7232L324.778 43.558C327.403 41.6557 329.534 40.7045 331.171 40.7045C331.821 40.7045 332.315 40.9453 332.652 41.4269C333.013 41.8845 333.194 42.4263 333.194 43.0524C333.194 43.6784 332.881 44.5453 332.255 45.653C331.629 46.7366 330.762 47.9406 329.654 49.265C328.57 50.5894 327.294 51.974 325.825 53.4188C324.356 54.8636 322.767 56.2844 321.057 57.681C319.348 59.0777 317.566 60.4141 315.712 61.6903C313.882 62.9425 312.051 64.0502 310.221 65.0134Z"/>
</mask>
<path d="M98.9692 50.6015L99.5384 51.6074L99.539 51.6071L98.9692 50.6015ZM92.612 54.6469L93.3482 55.538L93.3501 55.5364L92.612 54.6469ZM89.8669 57.067L89.0636 56.2359L89.0565 56.2427L89.0496 56.2497L89.8669 57.067ZM87.7719 58.9813L88.5067 59.8736L88.5089 59.8718L87.7719 58.9813ZM81.776 60.6067L81.3207 61.6691L81.3369 61.6761L81.3534 61.6825L81.776 60.6067ZM79.9339 59.4148L79.1402 60.2551L79.1473 60.2618L79.1545 60.2683L79.9339 59.4148ZM85.8937 37.4537L86.8834 38.0508L86.8837 38.0503L85.8937 37.4537ZM92.4676 27.5568L93.3941 28.2478L93.3969 28.2441L92.4676 27.5568ZM98.5719 20.2605L99.3991 21.0678L99.4039 21.0629L98.5719 20.2605ZM104.17 15.1315L103.458 14.2214L103.457 14.2218L104.17 15.1315ZM114.465 11.5195L113.603 12.2902L114.465 11.5195ZM113.923 16.7569L112.929 16.1676L112.925 16.1733L113.923 16.7569ZM110.925 21.597L111.89 22.2333L111.894 22.2274L111.898 22.2214L110.925 21.597ZM103.231 33.2638L102.266 32.6275L102.262 32.6343L103.231 33.2638ZM99.4387 39.5126L98.321 39.2184L98.3153 39.24L98.3104 39.2618L99.4387 39.5126ZM101.931 39.9099L102.406 40.9636L102.408 40.9627L101.931 39.9099ZM106.554 37.8149L106.092 36.7554L106.085 36.7587L106.077 36.7621L106.554 37.8149ZM129.527 36.623L130.463 35.945L130.46 35.9408L129.527 36.623ZM130.683 49.6985L129.619 49.2467L130.683 49.6985ZM127.36 53.8523L126.704 52.9002L126.697 52.9054L127.36 53.8523ZM123.025 56.6696L123.615 57.6635L123.62 57.6608L123.025 56.6696ZM118.402 59.4148L118.966 60.4236L118.979 60.4163L118.992 60.4086L118.402 59.4148ZM93.4067 59.0536L93.9236 60.0874L93.9403 60.079L93.9568 60.0701L93.4067 59.0536ZM114.934 47.3145L114.315 46.3386L114.311 46.341L114.934 47.3145ZM116.813 45.039H117.968C117.968 44.374 117.714 43.7207 117.105 43.2857C116.568 42.9019 115.904 42.7995 115.295 42.7995V43.9554V45.1112C115.483 45.1112 115.611 45.1283 115.691 45.1475C115.771 45.1665 115.783 45.1824 115.761 45.1668C115.732 45.1461 115.695 45.1059 115.67 45.0537C115.649 45.0076 115.657 44.9927 115.657 45.039H116.813ZM115.295 43.9554V42.7995C114.139 42.7995 112.911 43.0194 111.62 43.4324L111.972 44.5333L112.325 45.6341C113.442 45.2766 114.429 45.1112 115.295 45.1112V43.9554ZM111.972 44.5333L111.62 43.4324C110.372 43.8318 109.011 44.352 107.54 44.9898L107.999 46.0503L108.459 47.1109C109.877 46.4965 111.165 46.0053 112.325 45.6341L111.972 44.5333ZM107.999 46.0503L107.54 44.9898C106.071 45.6262 104.545 46.3467 102.961 47.1508L103.484 48.1814L104.007 49.212C105.554 48.4268 107.038 47.7266 108.459 47.1109L107.999 46.0503ZM103.484 48.1814L102.961 47.1508C101.381 47.953 99.8603 48.768 98.3993 49.5959L98.9692 50.6015L99.539 51.6071C100.968 50.7975 102.457 49.9991 104.007 49.212L103.484 48.1814ZM98.9692 50.6015L98.3999 49.5955C95.2943 51.353 93.0934 52.7456 91.8739 53.7574L92.612 54.6469L93.3501 55.5364C94.3942 54.67 96.4314 53.3656 99.5384 51.6074L98.9692 50.6015ZM92.612 54.6469L91.8759 53.7558C90.754 54.6826 89.8146 55.51 89.0636 56.2359L89.8669 57.067L90.6702 57.898C91.3641 57.2273 92.2547 56.4413 93.3482 55.538L92.612 54.6469ZM89.8669 57.067L89.0496 56.2497C88.3747 56.9246 87.7031 57.538 87.035 58.0909L87.7719 58.9813L88.5089 59.8718C89.2375 59.2688 89.9625 58.606 90.6842 57.8843L89.8669 57.067ZM87.7719 58.9813L87.0372 58.0891C86.25 58.7374 85.5935 59.1938 85.0617 59.4829C84.5103 59.7827 84.1911 59.8482 84.0516 59.8482V61.0041V62.1599C84.7548 62.1599 85.4771 61.8883 86.1659 61.5138C86.8741 61.1288 87.6565 60.5738 88.5067 59.8736L87.7719 58.9813ZM84.0516 61.0041V59.8482C83.3301 59.8482 82.7182 59.735 82.1986 59.5309L81.776 60.6067L81.3534 61.6825C82.1823 62.0082 83.0874 62.1599 84.0516 62.1599V61.0041ZM81.776 60.6067L82.2313 59.5443C81.6787 59.3075 81.1737 58.9816 80.7132 58.5612L79.9339 59.4148L79.1545 60.2683C79.8018 60.8593 80.5248 61.328 81.3207 61.6691L81.776 60.6067ZM79.9339 59.4148L80.7275 58.5745C79.6426 57.5498 79.1392 56.3907 79.1392 55.0442H77.9834H76.8275C76.8275 57.069 77.6245 58.8236 79.1402 60.2551L79.9339 59.4148ZM77.9834 55.0442H79.1392C79.1392 53.8155 79.704 51.7969 81.0151 48.8812C82.3068 46.0088 84.2584 42.4018 86.8834 38.0508L85.8937 37.4537L84.904 36.8567C82.2554 41.2467 80.2519 44.942 78.9068 47.9331C77.5812 50.881 76.8275 53.2871 76.8275 55.0442H77.9834ZM85.8937 37.4537L86.8837 38.0503C89.132 34.319 91.3023 31.0527 93.3941 28.2478L92.4676 27.5568L91.541 26.8658C89.3947 29.7438 87.1824 33.0755 84.9037 36.8572L85.8937 37.4537ZM92.4676 27.5568L93.3969 28.2441C95.4928 25.4099 97.4937 23.0202 99.3991 21.0678L98.5719 20.2605L97.7447 19.4533C95.749 21.4982 93.6805 23.9727 91.5382 26.8696L92.4676 27.5568ZM98.5719 20.2605L99.4039 21.0629C101.326 19.0699 103.152 17.3981 104.884 16.0412L104.17 15.1315L103.457 14.2218C101.625 15.6582 99.719 17.4058 97.7398 19.4582L98.5719 20.2605ZM104.17 15.1315L104.883 16.0416C106.675 14.6389 108.249 13.6146 109.611 12.945C110.981 12.2711 112.071 11.989 112.912 11.989V10.8332V9.67735C111.585 9.67735 110.134 10.1117 108.591 10.8705C107.039 11.6337 105.326 12.7586 103.458 14.2214L104.17 15.1315ZM112.912 10.8332V11.989C113.216 11.989 113.418 12.0832 113.603 12.2902L114.465 11.5195L115.326 10.7488C114.693 10.0407 113.859 9.67735 112.912 9.67735V10.8332ZM114.465 11.5195L113.603 12.2902C113.855 12.5716 113.923 12.7997 113.923 13.0004H115.079H116.235C116.235 12.1416 115.893 11.3824 115.326 10.7488L114.465 11.5195ZM115.079 13.0004H113.923C113.923 13.9503 113.62 15.0006 112.929 16.1676L113.923 16.7569L114.917 17.3461C115.767 15.9125 116.235 14.4585 116.235 13.0004H115.079ZM113.923 16.7569L112.925 16.1733C112.19 17.4304 111.2 19.0289 109.952 20.9726L110.925 21.597L111.898 22.2214C113.154 20.2641 114.163 18.6359 114.921 17.3405L113.923 16.7569ZM110.925 21.597L109.96 20.9607L102.266 32.6275L103.231 33.2638L104.196 33.9001L111.89 22.2333L110.925 21.597ZM103.231 33.2638L102.262 32.6343C101.056 34.4918 100.13 35.9511 99.4891 37.0075C99.1691 37.5348 98.9141 37.9712 98.7286 38.3115C98.5682 38.6059 98.3929 38.945 98.321 39.2184L99.4387 39.5126L100.557 39.8067C100.545 39.8514 100.573 39.7585 100.758 39.4178C100.919 39.123 101.153 38.7212 101.465 38.207C102.088 37.1805 102.999 35.7441 104.201 33.8933L103.231 33.2638ZM99.4387 39.5126L98.3104 39.2618C98.2132 39.6991 98.1384 40.1208 98.1384 40.4517H99.2943H100.45C100.45 40.4395 100.453 40.3785 100.473 40.2482C100.492 40.1245 100.522 39.9642 100.567 39.7633L99.4387 39.5126ZM99.2943 40.4517H98.1384C98.1384 40.8436 98.2931 41.2973 98.7138 41.6032C99.066 41.8594 99.4534 41.8965 99.6916 41.8965V40.7407V39.5848C99.6917 39.5848 99.7289 39.5845 99.7901 39.5993C99.8521 39.6143 99.9581 39.6498 100.073 39.7337C100.196 39.8226 100.301 39.9466 100.37 40.0965C100.436 40.2401 100.45 40.3682 100.45 40.4517H99.2943ZM99.6916 40.7407V41.8965C99.9183 41.8965 100.137 41.8443 100.286 41.8036C100.457 41.7567 100.648 41.6923 100.852 41.6167C101.261 41.4649 101.782 41.245 102.406 40.9636L101.931 39.9099L101.456 38.8563C100.852 39.1286 100.386 39.3241 100.048 39.4493C99.8788 39.5121 99.7569 39.5516 99.6753 39.5739C99.5713 39.6024 99.5973 39.5848 99.6916 39.5848V40.7407ZM101.931 39.9099C102.408 40.9627 102.408 40.9627 102.408 40.9627C102.408 40.9627 102.408 40.9627 102.408 40.9627C102.408 40.9627 102.408 40.9626 102.408 40.9626C102.408 40.9626 102.408 40.9625 102.409 40.9625C102.409 40.9625 102.409 40.9624 102.409 40.9624C102.409 40.9624 102.409 40.9624 102.409 40.9623C102.409 40.9623 102.409 40.9622 102.409 40.9622C102.41 40.962 102.411 40.9612 102.413 40.9607C102.413 40.9606 102.423 40.956 102.426 40.9545C102.432 40.952 102.463 40.9379 102.48 40.93C102.491 40.925 102.507 40.9179 102.521 40.9116C102.526 40.9092 102.562 40.8928 102.571 40.8891C102.585 40.8827 102.584 40.8829 102.599 40.8763C102.607 40.8727 102.621 40.8663 102.629 40.8625C102.632 40.8612 102.691 40.8344 102.697 40.8318C102.722 40.8206 102.823 40.7747 102.86 40.7581C102.888 40.7454 102.923 40.7292 102.954 40.7152C102.965 40.7105 102.994 40.6971 103.005 40.6921C103.011 40.6897 103.026 40.6828 103.031 40.6802C103.034 40.679 103.042 40.6755 103.045 40.6742C103.047 40.6732 103.049 40.6722 103.051 40.6712C103.054 40.6701 103.056 40.6691 103.058 40.6681C103.061 40.6671 103.063 40.6661 103.065 40.665C103.067 40.664 103.07 40.663 103.072 40.6619C103.075 40.6606 103.083 40.657 103.086 40.6557C103.091 40.6531 103.108 40.6457 103.114 40.643C103.125 40.6378 103.159 40.6225 103.171 40.617C103.195 40.6061 103.266 40.5739 103.293 40.5617C103.315 40.5516 103.529 40.4546 103.564 40.439C104.354 40.0811 105.471 39.5748 107.031 38.8677L106.554 37.8149L106.077 36.7621C106.077 36.7624 106.042 36.7783 106.041 36.7785C106.035 36.7812 106.029 36.7839 106.023 36.7866C106.017 36.7893 106.011 36.792 106.005 36.7947C105.96 36.8152 105.979 36.8067 105.934 36.8271C105.919 36.8338 105.807 36.8847 105.793 36.891C105.787 36.8937 105.781 36.8963 105.775 36.8989C105.77 36.9016 105.764 36.9042 105.758 36.9068C105.752 36.9095 105.746 36.9121 105.741 36.9147C105.735 36.9174 105.729 36.92 105.723 36.9226C105.64 36.9602 105.737 36.9164 105.654 36.9539C105.648 36.9565 105.643 36.9591 105.637 36.9617C105.631 36.9643 105.625 36.9669 105.62 36.9695C105.586 36.9848 105.619 36.9697 105.586 36.985C105.577 36.989 105.526 37.0119 105.517 37.0158C105.464 37.0399 105.503 37.0224 105.45 37.0464C105.441 37.0503 105.425 37.0577 105.417 37.0616C105.367 37.0841 105.433 37.0542 105.383 37.0767C105.375 37.0806 105.325 37.1029 105.317 37.1067C105.265 37.1302 105.303 37.1131 105.251 37.1365C105.221 37.1501 105.151 37.1821 105.121 37.1953C105.039 37.2327 105.14 37.1871 105.057 37.2244C105.022 37.2401 105.06 37.2231 105.025 37.2388C105.002 37.2495 105.017 37.2425 104.994 37.2531C104.954 37.2712 104.782 37.3489 104.745 37.3657C104.712 37.3808 104.657 37.4056 104.625 37.4204C104.622 37.4216 104.567 37.4463 104.565 37.4474C104.538 37.4597 104.533 37.4619 104.506 37.4741C104.392 37.526 104.157 37.6322 104.055 37.6787C103.98 37.7125 103.914 37.7424 103.842 37.7748C103.828 37.7816 103.754 37.815 103.74 37.8214C103.703 37.8378 103.675 37.8508 103.639 37.8669C103.635 37.8688 103.631 37.8706 103.627 37.8725C103.623 37.8744 103.619 37.8763 103.614 37.8781C103.594 37.8873 103.61 37.8802 103.59 37.8893C103.586 37.8911 103.582 37.893 103.578 37.8948C103.574 37.8967 103.569 37.8985 103.565 37.9004C103.561 37.9022 103.557 37.904 103.553 37.9059C103.549 37.9077 103.545 37.9096 103.541 37.9114C103.487 37.936 103.499 37.9306 103.445 37.9549C103.44 37.9574 103.263 38.0376 103.26 38.0387C103.172 38.0788 102.993 38.1597 102.917 38.1942C102.907 38.1987 102.846 38.2264 102.837 38.2305C102.81 38.2429 102.824 38.2361 102.797 38.2483C102.769 38.2611 102.787 38.2531 102.759 38.2658C102.697 38.2938 102.744 38.2725 102.683 38.3001C102.668 38.307 102.624 38.3268 102.61 38.3334C102.609 38.3336 102.574 38.3494 102.574 38.3496C102.557 38.3574 102.573 38.3498 102.556 38.3576C102.553 38.3589 102.55 38.3603 102.547 38.3616C102.545 38.3629 102.542 38.3643 102.539 38.3656C102.536 38.3669 102.533 38.3682 102.53 38.3695C102.527 38.3708 102.524 38.3722 102.521 38.3735C102.503 38.3818 102.522 38.373 102.504 38.3813C102.501 38.3826 102.498 38.3839 102.495 38.3852C102.493 38.3865 102.49 38.3878 102.487 38.3891C102.475 38.3944 102.482 38.3915 102.47 38.3968C102.417 38.4205 102.455 38.4036 102.403 38.427C102.381 38.4369 102.393 38.4318 102.371 38.4417C102.347 38.4524 102.362 38.4454 102.339 38.4561C102.299 38.4742 102.132 38.5499 102.104 38.5625C102.09 38.5691 101.908 38.6513 101.905 38.6525C101.825 38.6889 101.897 38.6564 101.82 38.6914C101.802 38.6993 101.757 38.7196 101.743 38.7262C101.637 38.774 101.71 38.741 101.617 38.7834C101.53 38.8227 101.601 38.7906 101.526 38.8244C101.496 38.8382 101.522 38.8262 101.495 38.8387C101.482 38.8445 101.482 38.8445 101.472 38.8489C101.471 38.8494 101.465 38.8523 101.464 38.8525C101.46 38.8546 101.462 38.8533 101.458 38.855C101.455 38.8565 101.46 38.8546 101.457 38.8559C101.456 38.8563 101.457 38.856 101.456 38.8563C101.456 38.8563 101.456 38.8564 101.455 38.8564C101.455 38.8565 101.455 38.8565 101.455 38.8566C101.455 38.8568 101.455 38.8566 101.455 38.8568C101.455 38.8569 101.454 38.8569 101.454 38.857C101.454 38.857 101.454 38.857 101.454 38.857C101.454 38.857 101.454 38.8571 101.454 38.8571C101.454 38.8571 101.454 38.8571 101.454 38.8571C101.454 38.8571 101.454 38.8571 101.931 39.9099ZM106.554 37.8149L107.016 38.8745C113.925 35.8624 119.374 34.4196 123.423 34.4196V33.2638V32.108C118.899 32.108 113.102 33.6993 106.092 36.7554L106.554 37.8149ZM123.423 33.2638V34.4196C125.43 34.4196 127.139 35.3154 128.594 37.3052L129.527 36.623L130.46 35.9408C128.64 33.4517 126.279 32.108 123.423 32.108V33.2638ZM129.527 36.623L128.591 37.3009C129.975 39.2119 130.647 41.2408 130.647 43.4136H131.802H132.958C132.958 40.7221 132.113 38.2239 130.463 35.9451L129.527 36.623ZM131.802 43.4136H130.647C130.647 45.7312 130.29 47.665 129.619 49.2467L130.683 49.6985L131.747 50.1502C132.568 48.2162 132.958 45.9601 132.958 43.4136H131.802ZM130.683 49.6985L129.619 49.2467C128.952 50.8173 127.979 52.0224 126.704 52.9003L127.36 53.8523L128.015 54.8043C129.678 53.6595 130.921 52.0953 131.747 50.1502L130.683 49.6985ZM127.36 53.8523L126.697 52.9054C125.273 53.9019 123.851 54.8262 122.431 55.6785L123.025 56.6696L123.62 57.6608C125.089 56.7793 126.556 55.8254 128.022 54.7992L127.36 53.8523ZM123.025 56.6696L122.435 55.6758L117.812 58.4209L118.402 59.4148L118.992 60.4086L123.615 57.6635L123.025 56.6696ZM118.402 59.4148L117.838 58.406C113.495 60.8346 109.775 62.64 106.672 63.8355C103.55 65.0379 101.132 65.5913 99.3665 65.5913V66.7472V67.903C101.55 67.903 104.279 67.2344 107.503 65.9927C110.744 64.744 114.568 62.8832 118.966 60.4236L118.402 59.4148ZM99.3665 66.7472V65.5913C96.696 65.5913 94.8696 65.238 93.7502 64.6561C93.2074 64.3739 92.8639 64.0552 92.6527 63.7258C92.4447 63.4014 92.3231 63.0021 92.3231 62.485H91.1672H90.0114C90.0114 63.3886 90.2314 64.2325 90.7067 64.9736C91.1787 65.7097 91.8602 66.279 92.6839 66.7072C94.2976 67.546 96.5709 67.903 99.3665 67.903V66.7472ZM91.1672 62.485H92.3231C92.3231 61.9091 92.4597 61.4636 92.695 61.103C92.9338 60.7371 93.3199 60.3892 93.9236 60.0874L93.4067 59.0536L92.8898 58.0198C92.0005 58.4644 91.2669 59.0616 90.7592 59.8396C90.248 60.6228 90.0114 61.5198 90.0114 62.485H91.1672ZM93.4067 59.0536L93.9568 60.0701C107.665 52.6517 114.908 48.7037 115.557 48.2881L114.934 47.3145L114.311 46.341C113.757 46.6959 106.648 50.574 92.8566 58.037L93.4067 59.0536ZM114.934 47.3145L115.554 48.2904C116.236 47.8575 116.815 47.3934 117.234 46.8854C117.657 46.3737 117.968 45.7518 117.968 45.039H116.813H115.657C115.657 45.0486 115.655 45.167 115.452 45.4139C115.245 45.6645 114.885 45.9769 114.315 46.3386L114.934 47.3145ZM162.415 25.2451L163.152 26.1356L163.161 26.1282L163.17 26.1206L162.415 25.2451ZM160.139 26.6899L160.606 27.7474L160.619 27.7418L160.632 27.7358L160.139 26.6899ZM152.012 25.3174L152.767 24.4419L152.765 24.4398L152.012 25.3174ZM157.539 13.3977L157.862 14.5074L157.872 14.5044L157.539 13.3977ZM164.402 13.0004L163.903 14.0431L163.93 14.0559L163.957 14.0673L164.402 13.0004ZM165.81 13.9756L166.677 13.2109L165.81 13.9756ZM166.569 18.8157L165.465 18.4732L165.459 18.4907L165.455 18.5084L166.569 18.8157ZM153.313 65.0134L153.84 66.0418L153.851 66.0362L153.313 65.0134ZM147.967 67.2528L147.615 66.1518L147.608 66.154L147.601 66.1563L147.967 67.2528ZM137.637 66.9278L137.154 67.9781L137.162 67.982L137.171 67.9857L137.637 66.9278ZM132.869 63.6769L132.064 64.507L132.066 64.5085L132.869 63.6769ZM131.243 43.3052L130.247 42.7195L130.243 42.7258L131.243 43.3052ZM138.323 35.3588L139.015 36.2844L138.323 35.3588ZM151.94 35.1059L153.088 34.9682L153.087 34.966L151.94 35.1059ZM151.471 39.946L150.387 39.5429L150.385 39.5501L150.382 39.5573L151.471 39.946ZM150.026 43.0162L149.026 42.4353L149.022 42.4428L150.026 43.0162ZM148.075 46.0142L147.142 45.3317L147.139 45.3358L148.075 46.0142ZM146.052 48.651L146.944 49.3867L146.947 49.3829L146.052 48.651ZM143.055 51.9379L142.28 51.0802L141.899 51.4244V51.9379H143.055ZM144.897 54.4663L145.565 53.5231L145.563 53.522L144.897 54.4663ZM150.676 55.1165L150.296 54.0248L150.289 54.0274L150.676 55.1165ZM154.071 53.5633L153.513 52.5509L153.505 52.5559L154.071 53.5633ZM157.647 51.3239L156.993 50.3708L156.984 50.377L157.647 51.3239ZM161.259 48.7232L161.956 49.6456L161.963 49.6399L161.971 49.634L161.259 48.7232ZM167.869 43.558L167.191 42.6222L167.174 42.6344L167.157 42.6473L167.869 43.558ZM175.743 41.4269L174.796 42.0898L174.815 42.117L174.836 42.1432L175.743 41.4269ZM175.346 45.653L176.347 46.2313L176.352 46.2217L175.346 45.653ZM172.745 49.265L171.859 48.5234L171.851 48.5331L172.745 49.265ZM168.917 53.4188L168.106 52.5948L168.917 53.4188ZM164.149 57.681L163.417 56.7859L164.149 57.681ZM158.803 61.6903L159.456 62.6443L159.458 62.6424L158.803 61.6903ZM162.415 25.2451L161.678 24.3547C161.054 24.8708 160.378 25.3002 159.647 25.6441L160.139 26.6899L160.632 27.7358C161.538 27.3091 162.379 26.7753 163.152 26.1356L162.415 25.2451ZM160.139 26.6899L159.673 25.6324C159.019 25.9208 158.266 26.0759 157.394 26.0759V27.2317V28.3876C158.545 28.3876 159.622 28.1814 160.606 27.7474L160.139 26.6899ZM157.394 27.2317V26.0759C156.514 26.0759 155.671 25.9297 154.859 25.6382L154.468 26.7261L154.078 27.8139C155.144 28.1966 156.252 28.3876 157.394 28.3876V27.2317ZM154.468 26.7261L154.859 25.6382C154.042 25.345 153.349 24.944 152.767 24.4419L152.012 25.3174L151.258 26.1928C152.072 26.8947 153.016 27.4329 154.078 27.8139L154.468 26.7261ZM152.012 25.3174L152.765 24.4398C151.507 23.3622 150.893 22.0229 150.893 20.3328H149.737H148.581C148.581 22.6881 149.483 24.6719 151.26 26.195L152.012 25.3174ZM149.737 20.3328H150.893C150.893 19.1515 151.369 18.099 152.455 17.1332C153.576 16.137 155.344 15.2419 157.862 14.5073L157.539 13.3977L157.215 12.2881C154.532 13.0706 152.399 14.0899 150.919 15.4054C149.405 16.7512 148.581 18.4077 148.581 20.3328H149.737ZM157.539 13.3977L157.872 14.5044C159.58 13.9897 160.902 13.7589 161.873 13.7589V12.6031V11.4472C160.58 11.4472 159.013 11.7463 157.205 12.291L157.539 13.3977ZM161.873 12.6031V13.7589C162.954 13.7589 163.586 13.8917 163.903 14.0431L164.402 13.0004L164.9 11.9577C164.109 11.5793 163.056 11.4472 161.873 11.4472V12.6031ZM164.402 13.0004L163.957 14.0673C164.397 14.2506 164.714 14.4805 164.944 14.7404L165.81 13.9756L166.677 13.2109C166.184 12.6521 165.562 12.2318 164.846 11.9335L164.402 13.0004ZM165.81 13.9756L164.944 14.7404C165.53 15.4046 165.738 15.9862 165.738 16.5041H166.894H168.05C168.05 15.2882 167.536 14.1841 166.677 13.2109L165.81 13.9756ZM166.894 16.5041H165.738C165.738 17.2481 165.642 17.9012 165.465 18.4732L166.569 18.8157L167.673 19.1583C167.929 18.3336 168.05 17.4457 168.05 16.5041H166.894ZM166.569 18.8157L165.455 18.5084C165.286 19.1186 165.029 19.7664 164.675 20.4528L165.702 20.983L166.729 21.5131C167.145 20.7065 167.466 19.9096 167.683 19.1231L166.569 18.8157ZM165.702 20.983L164.675 20.4528C164.321 21.1384 163.885 21.8321 163.365 22.5337L164.293 23.2224L165.221 23.9111C165.809 23.1197 166.312 22.3205 166.729 21.5131L165.702 20.983ZM164.293 23.2224L163.365 22.5337C162.861 23.2123 162.293 23.8238 161.66 24.3697L162.415 25.2451L163.17 26.1206C163.933 25.4625 164.617 24.7255 165.221 23.9111L164.293 23.2224ZM153.313 65.0134L152.785 63.985C151.004 64.8988 149.281 65.6196 147.615 66.1518L147.967 67.2528L148.319 68.3539C150.12 67.7784 151.961 67.0062 153.84 66.0417L153.313 65.0134ZM147.967 67.2528L147.601 66.1563C145.976 66.6982 144.389 66.9639 142.838 66.9639V68.1197V69.2756C144.658 69.2756 146.491 68.9633 148.332 68.3494L147.967 67.2528ZM142.838 68.1197V66.9639C141.364 66.9639 139.788 66.6118 138.102 65.8698L137.637 66.9278L137.171 67.9857C139.097 68.833 140.989 69.2756 142.838 69.2756V68.1197ZM137.637 66.9278L138.119 65.8775C136.454 65.1125 134.974 64.1025 133.671 62.8454L132.869 63.6769L132.066 64.5085C133.557 65.9483 135.255 67.1055 137.154 67.9781L137.637 66.9278ZM132.869 63.6769L133.673 62.8469C130.749 60.0135 129.365 56.9525 129.365 53.6356H128.209H127.053C127.053 57.6871 128.776 61.3203 132.064 64.507L132.869 63.6769ZM128.209 53.6356H129.365C129.365 50.4791 130.303 47.2335 132.243 43.8846L131.243 43.3052L130.243 42.7258C128.138 46.3601 127.053 50.0015 127.053 53.6356H128.209ZM131.243 43.3052L132.24 43.8909C134.018 40.8657 136.275 38.3334 139.015 36.2844L138.323 35.3588L137.631 34.4332C134.639 36.6704 132.177 39.4357 130.247 42.7195L131.243 43.3052ZM138.323 35.3588L139.015 36.2844C141.768 34.2251 144.19 33.2999 146.305 33.2999V32.1441V30.9882C143.509 30.9882 140.608 32.2062 137.631 34.4332L138.323 35.3588ZM146.305 32.1441V33.2999C147.984 33.2999 149.115 33.5406 149.813 33.9076C150.443 34.2387 150.722 34.6639 150.793 35.2458L151.94 35.1059L153.087 34.966C152.918 33.5734 152.137 32.5177 150.889 31.8614C149.709 31.2412 148.142 30.9882 146.305 30.9882V32.1441ZM151.94 35.1059L150.792 35.2436C150.858 35.7884 150.893 36.439 150.893 37.2009H152.048H153.204C153.204 36.3735 153.167 35.6274 153.088 34.9682L151.94 35.1059ZM152.048 37.2009H150.893C150.893 37.8157 150.742 38.5898 150.387 39.5429L151.471 39.946L152.554 40.3491C152.97 39.2313 153.204 38.1754 153.204 37.2009H152.048ZM151.471 39.946L150.382 39.5573C150.047 40.4949 149.597 41.4541 149.026 42.4353L150.026 43.0162L151.025 43.5972C151.659 42.5074 152.171 41.4199 152.559 40.3348L151.471 39.946ZM150.026 43.0162L149.022 42.4428C148.467 43.4146 147.84 44.3776 147.142 45.3317L148.075 46.0142L149.008 46.6967C149.755 45.6762 150.429 44.6405 151.029 43.5897L150.026 43.0162ZM148.075 46.0142L147.139 45.3358C146.452 46.2835 145.792 47.1443 145.158 47.919L146.052 48.651L146.947 49.3829C147.614 48.5684 148.301 47.6713 149.011 46.6926L148.075 46.0142ZM146.052 48.651L145.161 47.9152C143.918 49.4216 142.962 50.4642 142.28 51.0802L143.055 51.9379L143.829 52.7957C144.64 52.0631 145.683 50.9145 146.944 49.3867L146.052 48.651ZM143.055 51.9379H141.899C141.899 53.3559 142.941 54.5004 144.23 55.4106L144.897 54.4663L145.563 53.522C144.396 52.6984 144.21 52.1574 144.21 51.9379H143.055ZM144.897 54.4663L144.229 55.4095C145.446 56.2715 146.664 56.8502 147.822 56.8502V55.6944V54.5386C147.391 54.5386 146.659 54.2985 145.565 53.5231L144.897 54.4663ZM147.822 55.6944V56.8502C148.815 56.8502 149.902 56.6185 151.063 56.2055L150.676 55.1165L150.289 54.0274C149.283 54.385 148.468 54.5386 147.822 54.5386V55.6944ZM150.676 55.1165L151.056 56.2082C152.236 55.7977 153.43 55.2502 154.638 54.5707L154.071 53.5633L153.505 52.5559C152.401 53.1768 151.331 53.6647 150.296 54.0248L150.676 55.1165ZM154.071 53.5633L154.629 54.5756C155.848 53.9039 157.075 53.1351 158.31 52.2708L157.647 51.3239L156.984 50.377C155.811 51.1982 154.654 51.9224 153.513 52.551L154.071 53.5633ZM157.647 51.3239L158.301 52.2769C159.543 51.4243 160.762 50.5472 161.956 49.6456L161.259 48.7232L160.563 47.8008C159.397 48.6812 158.207 49.5379 156.993 50.3709L157.647 51.3239ZM161.259 48.7232L161.971 49.634L168.581 44.4688L167.869 43.558L167.157 42.6473L160.547 47.8125L161.259 48.7232ZM167.869 43.558L168.547 44.4939C171.137 42.6172 173.012 41.8604 174.262 41.8604V40.7045V39.5487C172.238 39.5487 169.851 40.6942 167.191 42.6222L167.869 43.558ZM174.262 40.7045V41.8604C174.582 41.8604 174.701 41.9535 174.796 42.0898L175.743 41.4269L176.69 40.7641C176.111 39.9372 175.243 39.5487 174.262 39.5487V40.7045ZM175.743 41.4269L174.836 42.1432C175.024 42.3811 175.129 42.6656 175.129 43.0524H176.285H177.441C177.441 42.1869 177.185 41.3878 176.65 40.7107L175.743 41.4269ZM176.285 43.0524H175.129C175.129 43.3611 174.95 44.0053 174.34 45.0843L175.346 45.653L176.352 46.2217C176.994 45.0853 177.441 43.9957 177.441 43.0524H176.285ZM175.346 45.653L174.345 45.0748C173.762 46.0837 172.938 47.2324 171.859 48.5235L172.745 49.265L173.632 50.0066C174.767 48.6488 175.678 47.3895 176.347 46.2312L175.346 45.653ZM172.745 49.265L171.851 48.5331C170.798 49.8196 169.551 51.1735 168.106 52.5948L168.917 53.4188L169.727 54.2429C171.22 52.7746 172.525 51.3592 173.64 49.9969L172.745 49.265ZM168.917 53.4188L168.106 52.5948C166.664 54.013 165.102 55.4101 163.417 56.7859L164.149 57.681L164.88 58.5761C166.615 57.1586 168.231 55.7143 169.727 54.2429L168.917 53.4188ZM164.149 57.681L163.417 56.7859C161.733 58.1621 159.976 59.4796 158.148 60.7382L158.803 61.6903L159.458 62.6424C161.338 61.3486 163.145 59.9932 164.88 58.5761L164.149 57.681ZM158.803 61.6903L158.15 60.7364C156.354 61.9652 154.562 63.0495 152.774 63.9906L153.313 65.0134L153.851 66.0362C155.723 65.0508 157.591 63.9198 159.456 62.6443L158.803 61.6903ZM209.39 49.0122L208.516 48.2552L208.514 48.2585L209.39 49.0122ZM198.409 59.5593L199.131 60.4618L199.138 60.4568L198.409 59.5593ZM170.488 62.7378L169.556 63.4211L169.557 63.4228L170.488 62.7378ZM178.001 22.789L178.902 23.5141L178.903 23.5128L178.001 22.789ZM191.619 10.5804L192.138 11.613L192.143 11.6104L191.619 10.5804ZM196.603 9.93019L196.159 10.9971L196.185 11.0081L196.212 11.0177L196.603 9.93019ZM198.265 10.8693L199.007 9.98286L198.999 9.97684L198.992 9.97094L198.265 10.8693ZM198.879 19.4298L199.95 19.8637L199.952 19.8591L198.879 19.4298ZM195.52 25.5341L194.563 24.8856L194.562 24.8872L195.52 25.5341ZM182.914 38.7541L182.194 37.8495L182.003 38.0017L181.89 38.2184L182.914 38.7541ZM182.444 52.9131L181.507 53.5894L181.514 53.5993L182.444 52.9131ZM196.242 49.5901L196.925 50.5227L196.936 50.5145L196.947 50.5061L196.242 49.5901ZM202.672 44.6416L203.377 45.5576L203.385 45.5514L203.393 45.545L202.672 44.6416ZM209.896 41.4992V42.655C210.535 42.655 210.8 42.792 210.892 42.868C210.942 42.9094 211.051 43.017 211.051 43.4136H212.207H213.363C213.363 42.5339 213.087 41.6842 212.367 41.0876C211.688 40.5255 210.797 40.3433 209.896 40.3433V41.4992ZM212.207 43.4136H211.051C211.051 44.5477 210.347 46.1428 208.516 48.2552L209.39 49.0122L210.263 49.7692C212.189 47.5471 213.363 45.4098 213.363 43.4136H212.207ZM209.39 49.0122L208.514 48.2585C205.458 51.8116 201.849 55.2799 197.681 58.6617L198.409 59.5593L199.138 60.4568C203.398 56.9998 207.109 53.4367 210.266 49.7658L209.39 49.0122ZM198.409 59.5593L197.687 58.6567C190.91 64.0786 185.035 66.6388 180.024 66.6388V67.7946V68.9505C185.801 68.9505 192.183 66.0205 199.131 60.4618L198.409 59.5593ZM180.024 67.7946V66.6388C176.548 66.6388 173.702 65.1554 171.42 62.0529L170.488 62.7378L169.557 63.4228C172.235 67.0626 175.747 68.9505 180.024 68.9505V67.7946ZM170.488 62.7378L171.421 62.0546C169.034 58.7972 167.779 54.3435 167.779 48.5787H166.624H165.468C165.468 54.6614 166.79 59.6471 169.556 63.4211L170.488 62.7378ZM166.624 48.5787H167.779C167.779 41.1759 171.395 32.8316 178.902 23.5141L178.001 22.789L177.101 22.0638C169.437 31.5769 165.468 40.4258 165.468 48.5787H166.624ZM178.001 22.789L178.903 23.5128C183.671 17.5761 188.087 13.6499 192.138 11.613L191.619 10.5804L191.1 9.54771C186.626 11.7971 181.964 16.01 177.1 22.0651L178.001 22.789ZM191.619 10.5804L192.143 11.6104C193.449 10.9457 194.249 10.7248 194.653 10.7248V9.56899V8.41315C193.66 8.41315 192.438 8.86651 191.094 9.55031L191.619 10.5804ZM194.653 9.56899V10.7248C195.246 10.7248 195.742 10.8233 196.159 10.9971L196.603 9.93019L197.048 8.86326C196.309 8.55544 195.505 8.41315 194.653 8.41315V9.56899ZM196.603 9.93019L196.212 11.0177C196.69 11.1899 197.131 11.4383 197.538 11.7677L198.265 10.8693L198.992 9.97094C198.388 9.48158 197.721 9.10395 196.995 8.84267L196.603 9.93019ZM198.265 10.8693L197.523 11.7558C198.471 12.5487 198.879 13.4282 198.879 14.4452H200.035H201.191C201.191 12.6689 200.419 11.1645 199.007 9.98286L198.265 10.8693ZM200.035 14.4452H198.879C198.879 15.6416 198.546 17.1505 197.806 19.0005L198.879 19.4298L199.952 19.8591C200.753 17.8563 201.191 16.0421 201.191 14.4452H200.035ZM198.879 19.4298L197.808 18.9958C197.075 20.8055 195.998 22.7683 194.563 24.8856L195.52 25.5341L196.477 26.1826C197.979 23.9655 199.142 21.8587 199.95 19.8637L198.879 19.4298ZM195.52 25.5341L194.562 24.8872C191.534 29.3703 187.419 33.6932 182.194 37.8495L182.914 38.7541L183.633 39.6586C189.004 35.3868 193.293 30.8965 196.478 26.181L195.52 25.5341ZM182.914 38.7541L181.89 38.2184C180.412 41.044 179.699 44.3914 179.699 48.2175H180.855H182.011C182.011 44.6752 182.671 41.7136 183.938 39.2897L182.914 38.7541ZM180.855 48.2175H179.699C179.699 50.1438 180.319 51.9422 181.507 53.5893L182.444 52.9131L183.382 52.237C182.451 50.9463 182.011 49.6143 182.011 48.2175H180.855ZM182.444 52.9131L181.514 53.5993C182.722 55.2363 184.219 56.2723 186.02 56.2723V55.1165V53.9606C185.221 53.9606 184.334 53.5278 183.374 52.227L182.444 52.9131ZM186.02 55.1165V56.2723C187.224 56.2723 188.744 55.6806 190.462 54.7516C192.231 53.7952 194.388 52.3796 196.925 50.5227L196.242 49.5901L195.559 48.6575C193.063 50.4848 191.001 51.8324 189.362 52.7181C187.673 53.6313 186.598 53.9606 186.02 53.9606V55.1165ZM196.242 49.5901L196.947 50.5061L203.377 45.5576L202.672 44.6416L201.967 43.7257L195.537 48.6741L196.242 49.5901ZM202.672 44.6416L203.393 45.545C205.916 43.5308 208.074 42.655 209.896 42.655V41.4992V40.3433C207.335 40.3433 204.676 41.5625 201.95 43.7383L202.672 44.6416ZM251.416 44.3166L250.859 43.3038L250.84 43.3143L250.822 43.3254L251.416 44.3166ZM254.306 42.7273L254.863 43.74L254.87 43.7363L254.877 43.7325L254.306 42.7273ZM258.062 46.8088L259.091 47.3363L259.096 47.3258L258.062 46.8088ZM256.076 49.8068L256.972 50.5365L256.98 50.5264L256.076 49.8068ZM253.114 52.9131L253.884 53.7751L253.894 53.7659L253.114 52.9131ZM249.466 55.6583L250.078 56.6384L250.082 56.6364L249.466 55.6583ZM235.126 57.0308L234.532 58.022L234.543 58.0288L234.554 58.0353L235.126 57.0308ZM233.717 56.1278L234.37 55.1739L233.524 54.5952L232.849 55.3657L233.717 56.1278ZM222.52 64.2188L223.037 65.2526L223.039 65.2515L222.52 64.2188ZM199.259 63.3157L198.326 63.9981L198.328 64.0014L199.259 63.3157ZM202.582 44.3888L201.838 43.5043L201.834 43.5072L202.582 44.3888ZM211.359 38.5735L210.871 37.5258L210.867 37.5274L211.359 38.5735ZM219.053 35.5032L218.707 34.4003L218.705 34.4011L219.053 35.5032ZM236.752 34.239L236.235 35.2729L236.246 35.2784L236.257 35.2836L236.752 34.239ZM239.786 36.2256L238.954 37.028L238.964 37.0388L238.975 37.0494L239.786 36.2256ZM212.118 51.5767L213.214 51.9422L213.274 51.7643V51.5767H212.118ZM212.082 51.6851L210.985 51.3196L210.926 51.4975V51.6851H212.082ZM212.768 53.7439L212.115 54.6978L212.141 54.7152L212.167 54.7312L212.768 53.7439ZM216.271 54.2857L216.557 55.4057L216.567 55.4031L216.577 55.4003L216.271 54.2857ZM219.775 53.0576L219.319 51.9957L219.314 51.9976L219.775 53.0576ZM227.216 48.5787L227.946 49.4746L228.664 48.8897L228.25 48.0618L227.216 48.5787ZM228.914 40.9935L229.783 41.7546L231.461 39.8377H228.914V40.9935ZM221.112 43.7025L220.553 42.6904L220.552 42.6912L221.112 43.7025ZM212.985 49.8791L212.105 49.1293L212.093 49.143L212.082 49.157L212.985 49.8791ZM241.664 44.75H240.508C240.508 45.8039 240.997 46.6739 241.91 47.2097C242.727 47.6894 243.804 47.8563 244.987 47.8563V46.7005V45.5446C243.955 45.5446 243.37 45.3864 243.08 45.216C242.885 45.1017 242.82 44.9965 242.82 44.75H241.664ZM244.987 46.7005V47.8563C246.949 47.8563 249.317 46.9243 252.011 45.3077L251.416 44.3166L250.822 43.3254C248.218 44.8874 246.3 45.5446 244.987 45.5446V46.7005ZM251.416 44.3166L251.973 45.3293L254.863 43.74L254.306 42.7273L253.749 41.7145L250.859 43.3038L251.416 44.3166ZM254.306 42.7273L254.877 43.7325C255.684 43.274 256.251 43.1246 256.618 43.1246V41.9688V40.8129C255.684 40.8129 254.71 41.1692 253.735 41.722L254.306 42.7273ZM256.618 41.9688V43.1246C257.042 43.1246 257.241 43.2434 257.365 43.375L258.207 42.5828L259.049 41.7906C258.402 41.1035 257.542 40.8129 256.618 40.8129V41.9688ZM258.207 42.5828L257.365 43.375C257.496 43.514 257.629 43.7654 257.629 44.2804H258.785H259.941C259.941 43.3506 259.688 42.4703 259.049 41.7906L258.207 42.5828ZM258.785 44.2804H257.629C257.629 44.7571 257.466 45.417 257.029 46.2919L258.062 46.8088L259.096 47.3258C259.622 46.2743 259.941 45.2486 259.941 44.2804H258.785ZM258.062 46.8088L257.034 46.2814C256.595 47.1367 255.979 48.0717 255.171 49.0873L256.076 49.8068L256.98 50.5264C257.858 49.4229 258.566 48.3593 259.091 47.3363L258.062 46.8088ZM256.076 49.8068L255.179 49.0772C254.377 50.0629 253.43 51.0576 252.334 52.0604L253.114 52.9131L253.894 53.7659C255.062 52.6978 256.089 51.6216 256.972 50.5365L256.076 49.8068ZM253.114 52.9131L252.344 52.0513C251.261 53.0191 250.096 53.8954 248.85 54.6802L249.466 55.6583L250.082 56.6364C251.436 55.7837 252.704 54.8299 253.884 53.775L253.114 52.9131ZM249.466 55.6583L248.853 54.6781C246.081 56.4107 243.608 57.2114 241.411 57.2114V58.3673V59.5231C244.175 59.5231 247.071 58.5179 250.078 56.6384L249.466 55.6583ZM241.411 58.3673V57.2114C238.901 57.2114 237.027 56.7829 235.698 56.0263L235.126 57.0308L234.554 58.0353C236.356 59.0607 238.672 59.5231 241.411 59.5231V58.3673ZM235.126 57.0308L235.721 56.0397C235.259 55.7624 234.809 55.4738 234.37 55.1739L233.717 56.1278L233.065 57.0818C233.542 57.408 234.03 57.7213 234.532 58.022L235.126 57.0308ZM233.717 56.1278L232.849 55.3657C230.401 58.1564 226.806 60.7718 222.001 63.186L222.52 64.2188L223.039 65.2515C228.011 62.7533 231.881 59.9748 234.586 56.89L233.717 56.1278ZM222.52 64.2188L222.003 63.1849C216.889 65.7421 212.533 66.9639 208.903 66.9639V68.1197V69.2756C213.027 69.2756 217.749 67.8967 223.037 65.2526L222.52 64.2188ZM208.903 68.1197V66.9639C205.191 66.9639 202.326 65.5292 200.189 62.6301L199.259 63.3157L198.328 64.0014C200.912 67.5076 204.476 69.2756 208.903 69.2756V68.1197ZM199.259 63.3157L200.192 62.6333C198.404 60.1891 197.561 57.7859 197.561 55.4054H196.405H195.25C195.25 58.3707 196.309 61.2411 198.326 63.9981L199.259 63.3157ZM196.405 55.4054H197.561C197.561 52.0123 199.362 48.6342 203.329 45.2704L202.582 44.3888L201.834 43.5072C197.566 47.1266 195.25 51.0929 195.25 55.4054H196.405ZM202.582 44.3888L203.326 45.2733C206.303 42.7687 209.145 40.8914 211.851 39.6195L211.359 38.5735L210.867 37.5274C207.938 38.9043 204.929 40.9039 201.838 43.5043L202.582 44.3888ZM211.359 38.5735L211.847 39.6211C214.656 38.3119 217.173 37.309 219.401 36.6054L219.053 35.5032L218.705 34.4011C216.357 35.1423 213.745 36.1862 210.871 37.5258L211.359 38.5735ZM219.053 35.5032L219.398 36.6062C224.159 35.114 228.398 34.3835 232.128 34.3835V33.2277V32.0718C228.104 32.0718 223.627 32.8584 218.707 34.4003L219.053 35.5032ZM232.128 33.2277V34.3835C233.71 34.3835 235.069 34.6901 236.235 35.2729L236.752 34.239L237.269 33.2052C235.737 32.4395 234.014 32.0718 232.128 32.0718V33.2277ZM236.752 34.239L236.257 35.2836C237.572 35.9065 238.442 36.4972 238.954 37.028L239.786 36.2256L240.618 35.4233C239.829 34.6057 238.677 33.8719 237.246 33.1945L236.752 34.239ZM239.786 36.2256L238.975 37.0494C240.274 38.3282 240.942 39.9596 240.942 42.041H242.097H243.253C243.253 39.4026 242.38 37.1572 240.597 35.4019L239.786 36.2256ZM242.097 42.041H240.942C240.942 42.6835 240.872 43.0648 240.798 43.2606L241.881 43.6664L242.963 44.0722C243.178 43.4974 243.253 42.7951 243.253 42.041H242.097ZM241.881 43.6664L240.798 43.2606C240.616 43.7479 240.508 44.2475 240.508 44.75H241.664H242.82C242.82 44.5783 242.857 44.3555 242.963 44.0722L241.881 43.6664ZM212.118 51.5767L211.021 51.2112L210.985 51.3196L212.082 51.6851L213.178 52.0506L213.214 51.9422L212.118 51.5767ZM212.082 51.6851H210.926V51.7212H212.082H213.237V51.6851H212.082ZM212.082 51.7212H210.926C210.926 52.8222 211.15 54.0376 212.115 54.6978L212.768 53.7439L213.421 52.79C213.45 52.8104 213.405 52.8001 213.348 52.6321C213.288 52.4556 213.237 52.1647 213.237 51.7212H212.082ZM212.768 53.7439L212.167 54.7312C213.533 55.5629 215.02 55.7976 216.557 55.4057L216.271 54.2857L215.986 53.1657C215.067 53.3999 214.218 53.2734 213.369 52.7566L212.768 53.7439ZM216.271 54.2857L216.577 55.4003C217.856 55.0495 219.075 54.6222 220.236 54.1176L219.775 53.0576L219.314 51.9976C218.259 52.4562 217.144 52.8477 215.966 53.1711L216.271 54.2857ZM219.775 53.0576L220.232 54.1195C223.071 52.8992 225.644 51.3514 227.946 49.4746L227.216 48.5787L226.486 47.6829C224.357 49.4181 221.97 50.8562 219.319 51.9957L219.775 53.0576ZM227.216 48.5787L228.25 48.0618C227.94 47.4431 227.794 46.8247 227.794 46.1948H226.638H225.482C225.482 47.2024 225.721 48.1732 226.182 49.0956L227.216 48.5787ZM226.638 46.1948H227.794C227.794 44.8221 228.389 43.348 229.783 41.7546L228.914 40.9935L228.044 40.2324C226.404 42.1066 225.482 44.1 225.482 46.1948H226.638ZM228.914 40.9935V39.8377C226.682 39.8377 223.867 40.8633 220.553 42.6904L221.112 43.7025L221.67 44.7147C224.906 42.9297 227.292 42.1493 228.914 42.1493V40.9935ZM221.112 43.7025L220.552 42.6912C216.872 44.7277 214.033 46.8665 212.105 49.1293L212.985 49.8791L213.864 50.6288C215.548 48.6535 218.128 46.6746 221.671 44.7139L221.112 43.7025ZM212.985 49.8791L212.082 49.157C211.764 49.5543 211.497 49.9435 211.305 50.3196C211.119 50.684 210.962 51.1158 210.962 51.5767H212.118H213.274C213.274 51.6282 213.261 51.5724 213.364 51.3709C213.461 51.1812 213.627 50.9262 213.887 50.6011L212.985 49.8791ZM293.949 49.0122L293.075 48.2552L293.072 48.2585L293.949 49.0122ZM282.968 59.5593L283.69 60.4618L283.696 60.4568L282.968 59.5593ZM255.047 62.7378L254.115 63.4211L254.116 63.4228L255.047 62.7378ZM262.56 22.789L263.46 23.5141L263.461 23.5128L262.56 22.789ZM276.177 10.5804L276.697 11.613L276.702 11.6104L276.177 10.5804ZM281.162 9.93019L280.717 10.9971L280.744 11.0081L280.771 11.0177L281.162 9.93019ZM282.824 10.8693L283.565 9.98286L283.558 9.97684L283.551 9.97094L282.824 10.8693ZM283.438 19.4298L284.509 19.8637L284.511 19.8591L283.438 19.4298ZM280.078 25.5341L279.122 24.8856L279.121 24.8872L280.078 25.5341ZM267.472 38.7541L266.753 37.8495L266.562 38.0017L266.448 38.2184L267.472 38.7541ZM267.003 52.9131L266.065 53.5894L266.073 53.5993L267.003 52.9131ZM280.801 49.5901L281.484 50.5227L281.495 50.5145L281.506 50.5061L280.801 49.5901ZM287.23 44.6416L287.935 45.5576L287.943 45.5514L287.951 45.545L287.23 44.6416ZM294.454 41.4992V42.655C295.094 42.655 295.359 42.792 295.451 42.868C295.501 42.9094 295.61 43.017 295.61 43.4136H296.766H297.922C297.922 42.5339 297.646 41.6842 296.925 41.0876C296.246 40.5255 295.355 40.3433 294.454 40.3433V41.4992ZM296.766 43.4136H295.61C295.61 44.5477 294.906 46.1428 293.075 48.2552L293.949 49.0122L294.822 49.7692C296.748 47.5471 297.922 45.4098 297.922 43.4136H296.766ZM293.949 49.0122L293.072 48.2585C290.017 51.8116 286.407 55.2799 282.24 58.6617L282.968 59.5593L283.696 60.4568C287.957 56.9998 291.668 53.4367 294.825 49.7658L293.949 49.0122ZM282.968 59.5593L282.246 58.6567C275.469 64.0786 269.594 66.6388 264.583 66.6388V67.7946V68.9505C270.36 68.9505 276.742 66.0205 283.69 60.4618L282.968 59.5593ZM264.583 67.7946V66.6388C261.106 66.6388 258.261 65.1554 255.978 62.0529L255.047 62.7378L254.116 63.4228C256.794 67.0626 260.306 68.9505 264.583 68.9505V67.7946ZM255.047 62.7378L255.979 62.0546C253.592 58.7972 252.338 54.3435 252.338 48.5787H251.182H250.026C250.026 54.6614 251.349 59.6471 254.115 63.4211L255.047 62.7378ZM251.182 48.5787H252.338C252.338 41.1759 255.954 32.8316 263.46 23.5141L262.56 22.789L261.66 22.0638C253.996 31.5769 250.026 40.4258 250.026 48.5787H251.182ZM262.56 22.789L263.461 23.5128C268.23 17.5761 272.646 13.6499 276.697 11.613L276.177 10.5804L275.658 9.54771C271.185 11.7971 266.523 16.01 261.659 22.0651L262.56 22.789ZM276.177 10.5804L276.702 11.6104C278.007 10.9457 278.808 10.7248 279.212 10.7248V9.56899V8.41315C278.219 8.41315 276.996 8.86651 275.653 9.55031L276.177 10.5804ZM279.212 9.56899V10.7248C279.805 10.7248 280.3 10.8233 280.717 10.9971L281.162 9.93019L281.607 8.86326C280.868 8.55544 280.063 8.41315 279.212 8.41315V9.56899ZM281.162 9.93019L280.771 11.0177C281.249 11.1899 281.689 11.4383 282.096 11.7677L282.824 10.8693L283.551 9.97094C282.946 9.48158 282.279 9.10395 281.554 8.84267L281.162 9.93019ZM282.824 10.8693L282.082 11.7558C283.029 12.5487 283.438 13.4282 283.438 14.4452H284.593H285.749C285.749 12.6689 284.978 11.1645 283.565 9.98286L282.824 10.8693ZM284.593 14.4452H283.438C283.438 15.6416 283.104 17.1505 282.364 19.0005L283.438 19.4298L284.511 19.8591C285.312 17.8563 285.749 16.0421 285.749 14.4452H284.593ZM283.438 19.4298L282.366 18.9958C281.633 20.8055 280.557 22.7683 279.122 24.8856L280.078 25.5341L281.035 26.1826C282.538 23.9655 283.701 21.8587 284.509 19.8637L283.438 19.4298ZM280.078 25.5341L279.121 24.8872C276.093 29.3703 271.978 33.6932 266.753 37.8495L267.472 38.7541L268.192 39.6586C273.562 35.3868 277.851 30.8965 281.036 26.181L280.078 25.5341ZM267.472 38.7541L266.448 38.2184C264.971 41.044 264.258 44.3914 264.258 48.2175H265.414H266.569C266.569 44.6752 267.229 41.7136 268.497 39.2897L267.472 38.7541ZM265.414 48.2175H264.258C264.258 50.1438 264.877 51.9422 266.066 53.5893L267.003 52.9131L267.94 52.237C267.009 50.9463 266.569 49.6143 266.569 48.2175H265.414ZM267.003 52.9131L266.073 53.5993C267.28 55.2363 268.778 56.2723 270.579 56.2723V55.1165V53.9606C269.779 53.9606 268.893 53.5278 267.933 52.227L267.003 52.9131ZM270.579 55.1165V56.2723C271.783 56.2723 273.302 55.6806 275.02 54.7516C276.789 53.7952 278.947 52.3796 281.484 50.5227L280.801 49.5901L280.118 48.6575C277.622 50.4848 275.559 51.8324 273.921 52.7181C272.232 53.6313 271.157 53.9606 270.579 53.9606V55.1165ZM280.801 49.5901L281.506 50.5061L287.935 45.5576L287.23 44.6416L286.525 43.7257L280.096 48.6741L280.801 49.5901ZM287.23 44.6416L287.951 45.545C290.475 43.5308 292.632 42.655 294.454 42.655V41.4992V40.3433C291.894 40.3433 289.235 41.5625 286.509 43.7383L287.23 44.6416ZM319.324 25.2451L320.061 26.1356L320.07 26.1282L320.078 26.1206L319.324 25.2451ZM317.048 26.6899L317.515 27.7474L317.528 27.7418L317.54 27.7358L317.048 26.6899ZM308.921 25.3174L309.676 24.4419L309.673 24.4398L308.921 25.3174ZM314.447 13.3977L314.771 14.5074L314.781 14.5044L314.447 13.3977ZM321.31 13.0004L320.812 14.0431L320.838 14.0559L320.866 14.0673L321.31 13.0004ZM322.719 13.9756L323.586 13.2109L322.719 13.9756ZM323.477 18.8157L322.374 18.4732L322.368 18.4907L322.363 18.5084L323.477 18.8157ZM310.221 65.0134L310.749 66.0418L310.76 66.0362L310.221 65.0134ZM304.876 67.2528L304.524 66.1518L304.517 66.154L304.51 66.1563L304.876 67.2528ZM294.545 66.9278L294.063 67.9781L294.071 67.982L294.08 67.9857L294.545 66.9278ZM289.777 63.6769L288.973 64.507L288.975 64.5085L289.777 63.6769ZM288.152 43.3052L287.156 42.7195L287.152 42.7258L288.152 43.3052ZM295.232 35.3588L295.924 36.2844L295.232 35.3588ZM308.849 35.1059L309.996 34.9682L309.996 34.966L308.849 35.1059ZM308.379 39.946L307.296 39.5429L307.293 39.5501L307.291 39.5573L308.379 39.946ZM306.934 43.0162L305.935 42.4353L305.931 42.4428L306.934 43.0162ZM304.984 46.0142L304.051 45.3317L304.048 45.3358L304.984 46.0142ZM302.961 48.651L303.853 49.3867L303.856 49.3829L302.961 48.651ZM299.963 51.9379L299.189 51.0802L298.807 51.4244V51.9379H299.963ZM301.805 54.4663L302.473 53.5231L302.472 53.522L301.805 54.4663ZM307.585 55.1165L307.205 54.0248L307.197 54.0274L307.585 55.1165ZM310.98 53.5633L310.422 52.5509L310.413 52.5559L310.98 53.5633ZM314.556 51.3239L313.902 50.3708L313.893 50.377L314.556 51.3239ZM318.168 48.7232L318.864 49.6456L318.872 49.6399L318.88 49.634L318.168 48.7232ZM324.778 43.558L324.1 42.6222L324.083 42.6344L324.066 42.6473L324.778 43.558ZM332.652 41.4269L331.705 42.0898L331.724 42.117L331.745 42.1432L332.652 41.4269ZM332.255 45.653L333.256 46.2313L333.261 46.2217L332.255 45.653ZM329.654 49.265L328.767 48.5234L328.759 48.5331L329.654 49.265ZM325.825 53.4188L325.015 52.5948L325.825 53.4188ZM321.057 57.681L320.326 56.7859L321.057 57.681ZM315.712 61.6903L316.364 62.6443L316.367 62.6424L315.712 61.6903ZM319.324 25.2451L318.587 24.3547C317.963 24.8708 317.287 25.3002 316.556 25.6441L317.048 26.6899L317.54 27.7358C318.447 27.3091 319.288 26.7753 320.061 26.1356L319.324 25.2451ZM317.048 26.6899L316.582 25.6324C315.928 25.9208 315.175 26.0759 314.303 26.0759V27.2317V28.3876C315.454 28.3876 316.531 28.1814 317.515 27.7474L317.048 26.6899ZM314.303 27.2317V26.0759C313.423 26.0759 312.58 25.9297 311.768 25.6382L311.377 26.7261L310.987 27.8139C312.053 28.1966 313.16 28.3876 314.303 28.3876V27.2317ZM311.377 26.7261L311.768 25.6382C310.951 25.345 310.258 24.944 309.676 24.4419L308.921 25.3174L308.166 26.1928C308.981 26.8947 309.925 27.4329 310.987 27.8139L311.377 26.7261ZM308.921 25.3174L309.673 24.4398C308.416 23.3622 307.801 22.0229 307.801 20.3328H306.646H305.49C305.49 22.6881 306.392 24.6719 308.169 26.195L308.921 25.3174ZM306.646 20.3328H307.801C307.801 19.1515 308.277 18.099 309.364 17.1332C310.485 16.137 312.253 15.2419 314.771 14.5073L314.447 13.3977L314.124 12.2881C311.441 13.0706 309.308 14.0899 307.828 15.4054C306.314 16.7512 305.49 18.4077 305.49 20.3328H306.646ZM314.447 13.3977L314.781 14.5044C316.489 13.9897 317.811 13.7589 318.782 13.7589V12.6031V11.4472C317.489 11.4472 315.922 11.7463 314.114 12.291L314.447 13.3977ZM318.782 12.6031V13.7589C319.863 13.7589 320.495 13.8917 320.812 14.0431L321.31 13.0004L321.809 11.9577C321.018 11.5793 319.964 11.4472 318.782 11.4472V12.6031ZM321.31 13.0004L320.866 14.0673C321.306 14.2506 321.623 14.4805 321.852 14.7404L322.719 13.9756L323.586 13.2109C323.093 12.6521 322.471 12.2318 321.755 11.9335L321.31 13.0004ZM322.719 13.9756L321.852 14.7404C322.438 15.4046 322.647 15.9862 322.647 16.5041H323.803H324.958C324.958 15.2882 324.444 14.1841 323.586 13.2109L322.719 13.9756ZM323.803 16.5041H322.647C322.647 17.2481 322.551 17.9012 322.374 18.4732L323.477 18.8157L324.581 19.1583C324.837 18.3336 324.958 17.4457 324.958 16.5041H323.803ZM323.477 18.8157L322.363 18.5084C322.195 19.1186 321.938 19.7664 321.583 20.4528L322.611 20.983L323.638 21.5131C324.054 20.7065 324.375 19.9096 324.592 19.1231L323.477 18.8157ZM322.611 20.983L321.583 20.4528C321.23 21.1384 320.794 21.8321 320.274 22.5337L321.202 23.2224L322.13 23.9111C322.717 23.1197 323.221 22.3205 323.638 21.5131L322.611 20.983ZM321.202 23.2224L320.274 22.5337C319.77 23.2123 319.202 23.8238 318.569 24.3697L319.324 25.2451L320.078 26.1206C320.842 25.4625 321.526 24.7255 322.13 23.9111L321.202 23.2224ZM310.221 65.0134L309.694 63.985C307.913 64.8988 306.19 65.6196 304.524 66.1518L304.876 67.2528L305.227 68.3539C307.029 67.7784 308.87 67.0062 310.749 66.0417L310.221 65.0134ZM304.876 67.2528L304.51 66.1563C302.884 66.6982 301.298 66.9639 299.747 66.9639V68.1197V69.2756C301.566 69.2756 303.399 68.9633 305.241 68.3494L304.876 67.2528ZM299.747 68.1197V66.9639C298.272 66.9639 296.697 66.6118 295.011 65.8698L294.545 66.9278L294.08 67.9857C296.005 68.833 297.898 69.2756 299.747 69.2756V68.1197ZM294.545 66.9278L295.028 65.8775C293.363 65.1125 291.882 64.1025 290.58 62.8454L289.777 63.6769L288.975 64.5085C290.466 65.9483 292.164 67.1055 294.063 67.9781L294.545 66.9278ZM289.777 63.6769L290.582 62.8469C287.658 60.0135 286.274 56.9525 286.274 53.6356H285.118H283.962C283.962 57.6871 285.684 61.3203 288.973 64.507L289.777 63.6769ZM285.118 53.6356H286.274C286.274 50.4791 287.212 47.2335 289.152 43.8846L288.152 43.3052L287.152 42.7258C285.046 46.3601 283.962 50.0015 283.962 53.6356H285.118ZM288.152 43.3052L289.148 43.8909C290.927 40.8657 293.184 38.3334 295.924 36.2844L295.232 35.3588L294.539 34.4332C291.548 36.6704 289.086 39.4357 287.156 42.7195L288.152 43.3052ZM295.232 35.3588L295.924 36.2844C298.677 34.2251 301.098 33.2999 303.214 33.2999V32.1441V30.9882C300.417 30.9882 297.517 32.2062 294.539 34.4332L295.232 35.3588ZM303.214 32.1441V33.2999C304.893 33.2999 306.023 33.5406 306.722 33.9076C307.352 34.2387 307.631 34.6639 307.701 35.2458L308.849 35.1059L309.996 34.966C309.826 33.5734 309.046 32.5177 307.797 31.8614C306.617 31.2412 305.051 30.9882 303.214 30.9882V32.1441ZM308.849 35.1059L307.701 35.2436C307.767 35.7884 307.801 36.439 307.801 37.2009H308.957H310.113C310.113 36.3735 310.076 35.6274 309.996 34.9682L308.849 35.1059ZM308.957 37.2009H307.801C307.801 37.8157 307.651 38.5898 307.296 39.5429L308.379 39.946L309.463 40.3491C309.878 39.2313 310.113 38.1754 310.113 37.2009H308.957ZM308.379 39.946L307.291 39.5573C306.956 40.4949 306.506 41.4541 305.935 42.4353L306.934 43.0162L307.934 43.5972C308.567 42.5074 309.08 41.4199 309.468 40.3348L308.379 39.946ZM306.934 43.0162L305.931 42.4428C305.376 43.4146 304.749 44.3776 304.051 45.3317L304.984 46.0142L305.917 46.6967C306.664 45.6762 307.338 44.6405 307.938 43.5897L306.934 43.0162ZM304.984 46.0142L304.048 45.3358C303.361 46.2835 302.701 47.1443 302.067 47.919L302.961 48.651L303.856 49.3829C304.522 48.5684 305.21 47.6713 305.92 46.6926L304.984 46.0142ZM302.961 48.651L302.07 47.9152C300.826 49.4216 299.87 50.4642 299.189 51.0802L299.963 51.9379L300.738 52.7957C301.549 52.0631 302.592 50.9145 303.853 49.3867L302.961 48.651ZM299.963 51.9379H298.807C298.807 53.3559 299.849 54.5004 301.139 55.4106L301.805 54.4663L302.472 53.522C301.305 52.6984 301.119 52.1574 301.119 51.9379H299.963ZM301.805 54.4663L301.137 55.4095C302.354 56.2715 303.573 56.8502 304.731 56.8502V55.6944V54.5386C304.3 54.5386 303.568 54.2985 302.473 53.5231L301.805 54.4663ZM304.731 55.6944V56.8502C305.723 56.8502 306.81 56.6185 307.972 56.2055L307.585 55.1165L307.197 54.0274C306.192 54.385 305.376 54.5386 304.731 54.5386V55.6944ZM307.585 55.1165L307.964 56.2082C309.144 55.7977 310.339 55.2502 311.547 54.5707L310.98 53.5633L310.413 52.5559C309.31 53.1768 308.24 53.6647 307.205 54.0248L307.585 55.1165ZM310.98 53.5633L311.538 54.5756C312.757 53.9039 313.984 53.1351 315.219 52.2708L314.556 51.3239L313.893 50.377C312.72 51.1982 311.563 51.9224 310.422 52.551L310.98 53.5633ZM314.556 51.3239L315.21 52.2769C316.452 51.4243 317.67 50.5472 318.864 49.6456L318.168 48.7232L317.471 47.8008C316.305 48.6812 315.116 49.5379 313.902 50.3709L314.556 51.3239ZM318.168 48.7232L318.88 49.634L325.489 44.4688L324.778 43.558L324.066 42.6473L317.456 47.8125L318.168 48.7232ZM324.778 43.558L325.456 44.4939C328.045 42.6172 329.921 41.8604 331.171 41.8604V40.7045V39.5487C329.146 39.5487 326.76 40.6942 324.1 42.6222L324.778 43.558ZM331.171 40.7045V41.8604C331.491 41.8604 331.61 41.9535 331.705 42.0898L332.652 41.4269L333.599 40.7641C333.02 39.9372 332.152 39.5487 331.171 39.5487V40.7045ZM332.652 41.4269L331.745 42.1432C331.933 42.3811 332.038 42.6656 332.038 43.0524H333.194H334.35C334.35 42.1869 334.094 41.3878 333.559 40.7107L332.652 41.4269ZM333.194 43.0524H332.038C332.038 43.3611 331.858 44.0053 331.248 45.0843L332.255 45.653L333.261 46.2217C333.903 45.0853 334.35 43.9957 334.35 43.0524H333.194ZM332.255 45.653L331.254 45.0748C330.671 46.0837 329.847 47.2324 328.767 48.5235L329.654 49.265L330.541 50.0066C331.676 48.6488 332.586 47.3895 333.255 46.2312L332.255 45.653ZM329.654 49.265L328.759 48.5331C327.707 49.8196 326.46 51.1735 325.015 52.5948L325.825 53.4188L326.636 54.2429C328.129 52.7746 329.434 51.3592 330.549 49.9969L329.654 49.265ZM325.825 53.4188L325.015 52.5948C323.573 54.013 322.01 55.4101 320.326 56.7859L321.057 57.681L321.789 58.5761C323.524 57.1586 325.14 55.7143 326.636 54.2429L325.825 53.4188ZM321.057 57.681L320.326 56.7859C318.641 58.1621 316.885 59.4796 315.056 60.7382L315.712 61.6903L316.367 62.6424C318.247 61.3486 320.054 59.9932 321.789 58.5761L321.057 57.681ZM315.712 61.6903L315.059 60.7364C313.263 61.9652 311.471 63.0495 309.683 63.9906L310.221 65.0134L310.76 66.0362C312.632 65.0508 314.5 63.9198 316.364 62.6443L315.712 61.6903Z" fill="white" mask="url(#path-5-outside-1_181_568)"/>
</svg>
